<mxfile host="app.diagrams.net" modified="2021-03-03T20:53:37.681Z" agent="5.0 (Windows NT 10.0; Win64; x64) AppleWebKit/537.36 (KHTML, like Gecko) Chrome/88.0.4324.190 Safari/537.36" etag="s-iAmqcxVio44EgFp7TX" version="14.4.4" type="github">
  <diagram id="5gNuIUNUO7Jp3l1IrIQm" name="Page-1">
    <mxGraphModel dx="2746" dy="1059" grid="1" gridSize="10" guides="1" tooltips="1" connect="1" arrows="1" fold="1" page="1" pageScale="1" pageWidth="850" pageHeight="1100" math="0" shadow="0">
      <root>
        <mxCell id="0" />
        <mxCell id="1" parent="0" />
        <mxCell id="TL697nV3fzDd3Jba2UGP-61" value="" style="rounded=1;whiteSpace=wrap;html=1;fontSize=14;" vertex="1" parent="1">
          <mxGeometry x="-40" y="260" width="920" height="880" as="geometry" />
        </mxCell>
        <mxCell id="TL697nV3fzDd3Jba2UGP-15" value="" style="rounded=1;whiteSpace=wrap;html=1;" vertex="1" parent="1">
          <mxGeometry x="280" y="340" width="200" height="130" as="geometry" />
        </mxCell>
        <mxCell id="TL697nV3fzDd3Jba2UGP-10" style="edgeStyle=orthogonalEdgeStyle;rounded=0;orthogonalLoop=1;jettySize=auto;html=1;exitX=1;exitY=0.5;exitDx=0;exitDy=0;entryX=0.145;entryY=0.145;entryDx=0;entryDy=0;entryPerimeter=0;" edge="1" parent="1" source="TL697nV3fzDd3Jba2UGP-1" target="TL697nV3fzDd3Jba2UGP-5">
          <mxGeometry relative="1" as="geometry">
            <mxPoint x="170" y="485" as="targetPoint" />
            <Array as="points">
              <mxPoint x="130" y="485" />
              <mxPoint x="130" y="577" />
            </Array>
          </mxGeometry>
        </mxCell>
        <mxCell id="TL697nV3fzDd3Jba2UGP-25" style="edgeStyle=orthogonalEdgeStyle;rounded=0;orthogonalLoop=1;jettySize=auto;html=1;exitX=0.5;exitY=1;exitDx=0;exitDy=0;fontSize=14;" edge="1" parent="1" source="TL697nV3fzDd3Jba2UGP-1" target="TL697nV3fzDd3Jba2UGP-24">
          <mxGeometry relative="1" as="geometry" />
        </mxCell>
        <mxCell id="TL697nV3fzDd3Jba2UGP-1" value="" style="aspect=fixed;perimeter=ellipsePerimeter;html=1;align=center;shadow=0;dashed=0;spacingTop=3;image;image=img/lib/active_directory/internet_globe.svg;" vertex="1" parent="1">
          <mxGeometry x="30" y="450" width="70" height="70" as="geometry" />
        </mxCell>
        <mxCell id="TL697nV3fzDd3Jba2UGP-11" style="edgeStyle=orthogonalEdgeStyle;rounded=0;orthogonalLoop=1;jettySize=auto;html=1;" edge="1" parent="1" target="TL697nV3fzDd3Jba2UGP-2">
          <mxGeometry relative="1" as="geometry">
            <mxPoint x="130" y="500" as="sourcePoint" />
            <Array as="points">
              <mxPoint x="130" y="368" />
            </Array>
          </mxGeometry>
        </mxCell>
        <mxCell id="TL697nV3fzDd3Jba2UGP-13" style="edgeStyle=orthogonalEdgeStyle;rounded=0;orthogonalLoop=1;jettySize=auto;html=1;entryX=0;entryY=0.5;entryDx=0;entryDy=0;" edge="1" parent="1" source="TL697nV3fzDd3Jba2UGP-2" target="TL697nV3fzDd3Jba2UGP-12">
          <mxGeometry relative="1" as="geometry">
            <mxPoint x="270" y="373.78499999999985" as="targetPoint" />
            <Array as="points" />
          </mxGeometry>
        </mxCell>
        <object label="" id="TL697nV3fzDd3Jba2UGP-2">
          <mxCell style="aspect=fixed;html=1;points=[];align=center;image;fontSize=12;image=img/lib/mscae/Network_Security_Groups_Classic.svg;" vertex="1" parent="1">
            <mxGeometry x="160" y="340" width="50" height="67.57" as="geometry" />
          </mxCell>
        </object>
        <mxCell id="TL697nV3fzDd3Jba2UGP-4" value="&lt;b&gt;&lt;font style=&quot;font-size: 16px&quot;&gt;Red TeamNSG&lt;/font&gt;&lt;/b&gt;" style="text;html=1;strokeColor=none;fillColor=none;align=center;verticalAlign=middle;whiteSpace=wrap;rounded=0;" vertex="1" parent="1">
          <mxGeometry x="120.9" y="300" width="120" height="50" as="geometry" />
        </mxCell>
        <mxCell id="TL697nV3fzDd3Jba2UGP-20" style="edgeStyle=orthogonalEdgeStyle;rounded=0;orthogonalLoop=1;jettySize=auto;html=1;exitX=1;exitY=0.5;exitDx=0;exitDy=0;exitPerimeter=0;entryX=0.05;entryY=0.026;entryDx=0;entryDy=0;entryPerimeter=0;fontSize=14;" edge="1" parent="1" source="TL697nV3fzDd3Jba2UGP-5" target="TL697nV3fzDd3Jba2UGP-19">
          <mxGeometry relative="1" as="geometry" />
        </mxCell>
        <mxCell id="TL697nV3fzDd3Jba2UGP-5" value="" style="outlineConnect=0;dashed=0;verticalLabelPosition=bottom;verticalAlign=top;align=center;html=1;shape=mxgraph.aws3.classic_load_balancer;fillColor=#F58534;gradientColor=none;" vertex="1" parent="1">
          <mxGeometry x="160" y="570" width="41.8" height="50" as="geometry" />
        </mxCell>
        <mxCell id="TL697nV3fzDd3Jba2UGP-6" style="edgeStyle=orthogonalEdgeStyle;rounded=0;orthogonalLoop=1;jettySize=auto;html=1;exitX=0.5;exitY=1;exitDx=0;exitDy=0;" edge="1" parent="1" source="TL697nV3fzDd3Jba2UGP-1" target="TL697nV3fzDd3Jba2UGP-1">
          <mxGeometry relative="1" as="geometry" />
        </mxCell>
        <mxCell id="TL697nV3fzDd3Jba2UGP-12" value="" style="image;html=1;image=img/lib/clip_art/computers/Virtual_Machine_128x128.png" vertex="1" parent="1">
          <mxGeometry x="290" y="333.78000000000003" width="80" height="80" as="geometry" />
        </mxCell>
        <mxCell id="TL697nV3fzDd3Jba2UGP-14" value="" style="aspect=fixed;html=1;points=[];align=center;image;fontSize=12;image=img/lib/mscae/Docker.svg;" vertex="1" parent="1">
          <mxGeometry x="390" y="353.28" width="50" height="41" as="geometry" />
        </mxCell>
        <mxCell id="TL697nV3fzDd3Jba2UGP-16" value="&lt;b&gt;JumpBox&lt;/b&gt;" style="text;html=1;strokeColor=none;fillColor=none;align=center;verticalAlign=middle;whiteSpace=wrap;rounded=0;fontSize=14;" vertex="1" parent="1">
          <mxGeometry x="290" y="394.28" width="70" height="40" as="geometry" />
        </mxCell>
        <mxCell id="TL697nV3fzDd3Jba2UGP-33" style="edgeStyle=orthogonalEdgeStyle;rounded=0;orthogonalLoop=1;jettySize=auto;html=1;fontSize=14;" edge="1" parent="1" source="TL697nV3fzDd3Jba2UGP-17" target="TL697nV3fzDd3Jba2UGP-22">
          <mxGeometry relative="1" as="geometry" />
        </mxCell>
        <mxCell id="TL697nV3fzDd3Jba2UGP-17" value="&lt;b&gt;Ansible&lt;/b&gt;" style="text;html=1;strokeColor=none;fillColor=none;align=center;verticalAlign=middle;whiteSpace=wrap;rounded=0;fontSize=14;" vertex="1" parent="1">
          <mxGeometry x="375" y="388.78" width="80" height="32.43" as="geometry" />
        </mxCell>
        <mxCell id="TL697nV3fzDd3Jba2UGP-18" value="&lt;span style=&quot;font-size: 13px ; background-color: rgb(255 , 255 , 255)&quot;&gt;52.158.249.100&lt;/span&gt;" style="text;html=1;strokeColor=none;fillColor=none;align=center;verticalAlign=middle;whiteSpace=wrap;rounded=0;fontSize=14;" vertex="1" parent="1">
          <mxGeometry x="290" y="430" width="80" height="20" as="geometry" />
        </mxCell>
        <mxCell id="TL697nV3fzDd3Jba2UGP-19" value="" style="rounded=1;whiteSpace=wrap;html=1;fontSize=14;" vertex="1" parent="1">
          <mxGeometry x="285" y="540" width="450" height="300" as="geometry" />
        </mxCell>
        <mxCell id="TL697nV3fzDd3Jba2UGP-44" style="edgeStyle=orthogonalEdgeStyle;rounded=0;orthogonalLoop=1;jettySize=auto;html=1;exitX=0.5;exitY=0;exitDx=0;exitDy=0;fontSize=14;entryX=0.5;entryY=0;entryDx=0;entryDy=0;" edge="1" parent="1" target="TL697nV3fzDd3Jba2UGP-21">
          <mxGeometry relative="1" as="geometry">
            <mxPoint x="520" y="420" as="sourcePoint" />
            <Array as="points">
              <mxPoint x="520" y="490" />
              <mxPoint x="380" y="490" />
            </Array>
          </mxGeometry>
        </mxCell>
        <mxCell id="TL697nV3fzDd3Jba2UGP-48" style="edgeStyle=orthogonalEdgeStyle;rounded=0;orthogonalLoop=1;jettySize=auto;html=1;exitX=1;exitY=0.5;exitDx=0;exitDy=0;entryX=0;entryY=0.5;entryDx=0;entryDy=0;fontSize=14;" edge="1" parent="1" source="TL697nV3fzDd3Jba2UGP-21" target="TL697nV3fzDd3Jba2UGP-22">
          <mxGeometry relative="1" as="geometry" />
        </mxCell>
        <mxCell id="TL697nV3fzDd3Jba2UGP-21" value="" style="image;html=1;image=img/lib/clip_art/computers/Virtual_Machine_128x128.png;fontSize=14;" vertex="1" parent="1">
          <mxGeometry x="340" y="550" width="80" height="80" as="geometry" />
        </mxCell>
        <mxCell id="TL697nV3fzDd3Jba2UGP-46" style="edgeStyle=orthogonalEdgeStyle;rounded=0;orthogonalLoop=1;jettySize=auto;html=1;fontSize=14;" edge="1" parent="1" source="TL697nV3fzDd3Jba2UGP-22" target="TL697nV3fzDd3Jba2UGP-21">
          <mxGeometry relative="1" as="geometry" />
        </mxCell>
        <mxCell id="TL697nV3fzDd3Jba2UGP-47" style="edgeStyle=orthogonalEdgeStyle;rounded=0;orthogonalLoop=1;jettySize=auto;html=1;exitX=1;exitY=0.5;exitDx=0;exitDy=0;fontSize=14;" edge="1" parent="1" source="TL697nV3fzDd3Jba2UGP-22" target="TL697nV3fzDd3Jba2UGP-23">
          <mxGeometry relative="1" as="geometry" />
        </mxCell>
        <mxCell id="TL697nV3fzDd3Jba2UGP-22" value="" style="image;html=1;image=img/lib/clip_art/computers/Virtual_Machine_128x128.png;fontSize=14;" vertex="1" parent="1">
          <mxGeometry x="480" y="550" width="80" height="80" as="geometry" />
        </mxCell>
        <mxCell id="TL697nV3fzDd3Jba2UGP-45" style="edgeStyle=orthogonalEdgeStyle;rounded=0;orthogonalLoop=1;jettySize=auto;html=1;exitX=0.5;exitY=0;exitDx=0;exitDy=0;fontSize=14;entryX=0.5;entryY=0;entryDx=0;entryDy=0;" edge="1" parent="1" target="TL697nV3fzDd3Jba2UGP-23">
          <mxGeometry relative="1" as="geometry">
            <mxPoint x="520" y="430" as="sourcePoint" />
            <Array as="points">
              <mxPoint x="520" y="490" />
              <mxPoint x="660" y="490" />
            </Array>
          </mxGeometry>
        </mxCell>
        <mxCell id="TL697nV3fzDd3Jba2UGP-49" style="edgeStyle=orthogonalEdgeStyle;rounded=0;orthogonalLoop=1;jettySize=auto;html=1;exitX=0;exitY=0.5;exitDx=0;exitDy=0;entryX=1;entryY=0.5;entryDx=0;entryDy=0;fontSize=14;" edge="1" parent="1" source="TL697nV3fzDd3Jba2UGP-23" target="TL697nV3fzDd3Jba2UGP-22">
          <mxGeometry relative="1" as="geometry" />
        </mxCell>
        <mxCell id="TL697nV3fzDd3Jba2UGP-23" value="" style="image;html=1;image=img/lib/clip_art/computers/Virtual_Machine_128x128.png;fontSize=14;" vertex="1" parent="1">
          <mxGeometry x="620" y="550" width="80" height="80" as="geometry" />
        </mxCell>
        <mxCell id="TL697nV3fzDd3Jba2UGP-27" style="edgeStyle=orthogonalEdgeStyle;rounded=0;orthogonalLoop=1;jettySize=auto;html=1;entryX=0;entryY=0.5;entryDx=0;entryDy=0;fontSize=14;" edge="1" parent="1" source="TL697nV3fzDd3Jba2UGP-24" target="TL697nV3fzDd3Jba2UGP-26">
          <mxGeometry relative="1" as="geometry" />
        </mxCell>
        <mxCell id="TL697nV3fzDd3Jba2UGP-24" value="" style="aspect=fixed;html=1;points=[];align=center;image;fontSize=12;image=img/lib/mscae/Network_Security_Groups_Classic.svg;" vertex="1" parent="1">
          <mxGeometry x="147.6" y="900" width="66.6" height="90" as="geometry" />
        </mxCell>
        <mxCell id="TL697nV3fzDd3Jba2UGP-26" value="" style="rounded=1;whiteSpace=wrap;html=1;fontSize=14;" vertex="1" parent="1">
          <mxGeometry x="255" y="890" width="345" height="200" as="geometry" />
        </mxCell>
        <mxCell id="TL697nV3fzDd3Jba2UGP-30" style="edgeStyle=orthogonalEdgeStyle;rounded=0;orthogonalLoop=1;jettySize=auto;html=1;fontSize=14;" edge="1" parent="1" source="TL697nV3fzDd3Jba2UGP-28" target="TL697nV3fzDd3Jba2UGP-29">
          <mxGeometry relative="1" as="geometry" />
        </mxCell>
        <mxCell id="TL697nV3fzDd3Jba2UGP-28" value="" style="image;html=1;image=img/lib/clip_art/computers/Virtual_Machine_128x128.png;fontSize=14;" vertex="1" parent="1">
          <mxGeometry x="470" y="905" width="80" height="80" as="geometry" />
        </mxCell>
        <mxCell id="TL697nV3fzDd3Jba2UGP-29" value="" style="aspect=fixed;html=1;points=[];align=center;image;fontSize=12;image=img/lib/mscae/Docker.svg;" vertex="1" parent="1">
          <mxGeometry x="310" y="912.1999999999999" width="80" height="65.6" as="geometry" />
        </mxCell>
        <mxCell id="TL697nV3fzDd3Jba2UGP-53" style="edgeStyle=orthogonalEdgeStyle;rounded=0;orthogonalLoop=1;jettySize=auto;html=1;exitX=0.5;exitY=1;exitDx=0;exitDy=0;fontSize=14;" edge="1" parent="1" source="TL697nV3fzDd3Jba2UGP-32" target="TL697nV3fzDd3Jba2UGP-50">
          <mxGeometry relative="1" as="geometry" />
        </mxCell>
        <mxCell id="TL697nV3fzDd3Jba2UGP-32" value="&lt;b&gt;Web-1&lt;/b&gt;&lt;br&gt;&lt;span style=&quot;font-family: &amp;#34;az_ea_font&amp;#34; , &amp;#34;segoe ui&amp;#34; , &amp;#34;az_font&amp;#34; , , , &amp;#34;blinkmacsystemfont&amp;#34; , &amp;#34;roboto&amp;#34; , &amp;#34;oxygen&amp;#34; , &amp;#34;ubuntu&amp;#34; , &amp;#34;cantarell&amp;#34; , &amp;#34;open sans&amp;#34; , &amp;#34;helvetica neue&amp;#34; , sans-serif ; font-size: 16px ; background-color: rgb(255 , 255 , 255)&quot;&gt;51.143.92.62&lt;/span&gt;" style="text;html=1;strokeColor=none;fillColor=none;align=center;verticalAlign=middle;whiteSpace=wrap;rounded=0;fontSize=14;" vertex="1" parent="1">
          <mxGeometry x="320" y="620" width="100" height="40" as="geometry" />
        </mxCell>
        <mxCell id="TL697nV3fzDd3Jba2UGP-35" value="&lt;b&gt;Web-2&lt;br&gt;&lt;/b&gt;&lt;span style=&quot;font-family: &amp;#34;az_ea_font&amp;#34; , &amp;#34;segoe ui&amp;#34; , &amp;#34;az_font&amp;#34; , , , &amp;#34;blinkmacsystemfont&amp;#34; , &amp;#34;roboto&amp;#34; , &amp;#34;oxygen&amp;#34; , &amp;#34;ubuntu&amp;#34; , &amp;#34;cantarell&amp;#34; , &amp;#34;open sans&amp;#34; , &amp;#34;helvetica neue&amp;#34; , sans-serif ; font-size: 16px ; background-color: rgb(255 , 255 , 255)&quot;&gt;51.143.92.62&lt;/span&gt;&lt;b&gt;&lt;br&gt;&lt;/b&gt;" style="text;html=1;strokeColor=none;fillColor=none;align=center;verticalAlign=middle;whiteSpace=wrap;rounded=0;fontSize=14;" vertex="1" parent="1">
          <mxGeometry x="460" y="620" width="120" height="40" as="geometry" />
        </mxCell>
        <mxCell id="TL697nV3fzDd3Jba2UGP-55" style="edgeStyle=orthogonalEdgeStyle;rounded=0;orthogonalLoop=1;jettySize=auto;html=1;exitX=0.5;exitY=1;exitDx=0;exitDy=0;fontSize=14;" edge="1" parent="1" source="TL697nV3fzDd3Jba2UGP-37" target="TL697nV3fzDd3Jba2UGP-52">
          <mxGeometry relative="1" as="geometry" />
        </mxCell>
        <mxCell id="TL697nV3fzDd3Jba2UGP-37" value="&lt;b&gt;Web-3&lt;br&gt;&lt;/b&gt;&lt;span style=&quot;font-family: &amp;#34;az_ea_font&amp;#34; , &amp;#34;segoe ui&amp;#34; , &amp;#34;az_font&amp;#34; , , , &amp;#34;blinkmacsystemfont&amp;#34; , &amp;#34;roboto&amp;#34; , &amp;#34;oxygen&amp;#34; , &amp;#34;ubuntu&amp;#34; , &amp;#34;cantarell&amp;#34; , &amp;#34;open sans&amp;#34; , &amp;#34;helvetica neue&amp;#34; , sans-serif ; font-size: 16px ; background-color: rgb(255 , 255 , 255)&quot;&gt;51.143.92.62&lt;/span&gt;" style="text;html=1;strokeColor=none;fillColor=none;align=center;verticalAlign=middle;whiteSpace=wrap;rounded=0;fontSize=14;" vertex="1" parent="1">
          <mxGeometry x="615" y="620" width="90" height="40" as="geometry" />
        </mxCell>
        <mxCell id="TL697nV3fzDd3Jba2UGP-38" value="&lt;b&gt;Red-Team-LB&lt;br&gt;&lt;/b&gt;&lt;span style=&quot;font-family: &amp;#34;az_ea_font&amp;#34; , &amp;#34;segoe ui&amp;#34; , &amp;#34;az_font&amp;#34; , , , &amp;#34;blinkmacsystemfont&amp;#34; , &amp;#34;roboto&amp;#34; , &amp;#34;oxygen&amp;#34; , &amp;#34;ubuntu&amp;#34; , &amp;#34;cantarell&amp;#34; , &amp;#34;open sans&amp;#34; , &amp;#34;helvetica neue&amp;#34; , sans-serif ; font-size: 16px ; background-color: rgb(255 , 255 , 255)&quot;&gt;51.143.92.62&amp;nbsp;&lt;/span&gt;&lt;b&gt;&lt;br&gt;&lt;/b&gt;" style="text;html=1;strokeColor=none;fillColor=none;align=center;verticalAlign=middle;whiteSpace=wrap;rounded=0;fontSize=14;" vertex="1" parent="1">
          <mxGeometry x="130" y="620" width="100" height="40" as="geometry" />
        </mxCell>
        <mxCell id="TL697nV3fzDd3Jba2UGP-39" value="&lt;b&gt;ELK-VM&lt;br&gt;&lt;/b&gt;&lt;span style=&quot;font-family: &amp;#34;az_ea_font&amp;#34; , &amp;#34;segoe ui&amp;#34; , &amp;#34;az_font&amp;#34; , , , &amp;#34;blinkmacsystemfont&amp;#34; , &amp;#34;roboto&amp;#34; , &amp;#34;oxygen&amp;#34; , &amp;#34;ubuntu&amp;#34; , &amp;#34;cantarell&amp;#34; , &amp;#34;open sans&amp;#34; , &amp;#34;helvetica neue&amp;#34; , sans-serif ; font-size: 16px ; background-color: rgb(255 , 255 , 255)&quot;&gt;52.251.52.54&lt;/span&gt;&lt;b&gt;&lt;br&gt;&lt;/b&gt;" style="text;html=1;strokeColor=none;fillColor=none;align=center;verticalAlign=middle;whiteSpace=wrap;rounded=0;fontSize=14;" vertex="1" parent="1">
          <mxGeometry x="465" y="977.8" width="90" height="40" as="geometry" />
        </mxCell>
        <mxCell id="TL697nV3fzDd3Jba2UGP-40" value="&lt;b&gt;ELK-Sever-SG&lt;/b&gt;" style="text;html=1;strokeColor=none;fillColor=none;align=center;verticalAlign=middle;whiteSpace=wrap;rounded=0;fontSize=14;" vertex="1" parent="1">
          <mxGeometry x="115" y="997.8" width="130" height="42.2" as="geometry" />
        </mxCell>
        <mxCell id="TL697nV3fzDd3Jba2UGP-42" value="&lt;b&gt;ELK stack Port 5601 (ElasticSearch, Logstash, Kibana&lt;/b&gt;" style="text;html=1;strokeColor=none;fillColor=none;align=center;verticalAlign=middle;whiteSpace=wrap;rounded=0;fontSize=14;" vertex="1" parent="1">
          <mxGeometry x="255" y="997.8" width="190" height="25" as="geometry" />
        </mxCell>
        <mxCell id="TL697nV3fzDd3Jba2UGP-50" value="" style="aspect=fixed;html=1;points=[];align=center;image;fontSize=12;image=img/lib/mscae/Docker.svg;" vertex="1" parent="1">
          <mxGeometry x="345" y="710" width="50" height="41" as="geometry" />
        </mxCell>
        <mxCell id="TL697nV3fzDd3Jba2UGP-54" style="edgeStyle=orthogonalEdgeStyle;rounded=0;orthogonalLoop=1;jettySize=auto;html=1;fontSize=14;" edge="1" parent="1" source="TL697nV3fzDd3Jba2UGP-35" target="TL697nV3fzDd3Jba2UGP-51">
          <mxGeometry relative="1" as="geometry" />
        </mxCell>
        <mxCell id="TL697nV3fzDd3Jba2UGP-51" value="" style="aspect=fixed;html=1;points=[];align=center;image;fontSize=12;image=img/lib/mscae/Docker.svg;" vertex="1" parent="1">
          <mxGeometry x="495" y="710" width="50" height="41" as="geometry" />
        </mxCell>
        <mxCell id="TL697nV3fzDd3Jba2UGP-52" value="" style="aspect=fixed;html=1;points=[];align=center;image;fontSize=12;image=img/lib/mscae/Docker.svg;" vertex="1" parent="1">
          <mxGeometry x="635" y="710" width="50" height="41" as="geometry" />
        </mxCell>
        <mxCell id="TL697nV3fzDd3Jba2UGP-56" value="&lt;b style=&quot;font-size: 15px&quot;&gt;DVWA&lt;br&gt;Filebeat&lt;br&gt;MetricBeat&lt;/b&gt;" style="text;html=1;strokeColor=none;fillColor=none;align=center;verticalAlign=middle;whiteSpace=wrap;rounded=0;fontSize=14;" vertex="1" parent="1">
          <mxGeometry x="320" y="760" width="100" height="60" as="geometry" />
        </mxCell>
        <mxCell id="TL697nV3fzDd3Jba2UGP-57" value="&lt;b style=&quot;font-size: 15px&quot;&gt;DVWA&lt;br&gt;Filebeat&lt;br&gt;MetricBeat&lt;/b&gt;" style="text;html=1;strokeColor=none;fillColor=none;align=center;verticalAlign=middle;whiteSpace=wrap;rounded=0;fontSize=14;" vertex="1" parent="1">
          <mxGeometry x="470" y="760" width="100" height="60" as="geometry" />
        </mxCell>
        <mxCell id="TL697nV3fzDd3Jba2UGP-58" value="&lt;b style=&quot;font-size: 15px&quot;&gt;DVWA&lt;br&gt;Filebeat&lt;br&gt;MetricBeat&lt;/b&gt;" style="text;html=1;strokeColor=none;fillColor=none;align=center;verticalAlign=middle;whiteSpace=wrap;rounded=0;fontSize=14;" vertex="1" parent="1">
          <mxGeometry x="610" y="760" width="100" height="60" as="geometry" />
        </mxCell>
        <mxCell id="TL697nV3fzDd3Jba2UGP-59" value="" style="endArrow=classic;startArrow=classic;html=1;fontSize=14;entryX=0.928;entryY=1.003;entryDx=0;entryDy=0;entryPerimeter=0;exitX=1;exitY=0.25;exitDx=0;exitDy=0;" edge="1" parent="1" source="TL697nV3fzDd3Jba2UGP-26" target="TL697nV3fzDd3Jba2UGP-19">
          <mxGeometry width="50" height="50" relative="1" as="geometry">
            <mxPoint x="610" y="940" as="sourcePoint" />
            <mxPoint x="660" y="890" as="targetPoint" />
          </mxGeometry>
        </mxCell>
        <mxCell id="TL697nV3fzDd3Jba2UGP-60" value="&lt;b&gt;Systems Logs&lt;/b&gt;" style="text;html=1;strokeColor=none;fillColor=none;align=center;verticalAlign=middle;whiteSpace=wrap;rounded=0;fontSize=14;" vertex="1" parent="1">
          <mxGeometry x="650" y="900" width="110" height="20" as="geometry" />
        </mxCell>
      </root>
    </mxGraphModel>
  </diagram>
</mxfile>
